<svg width="136" height="2" viewBox="0 0 136 2" fill="none" xmlns="http://www.w3.org/2000/svg">
<path d="M-0.00799996 1.064H4.104V0.344H-0.00799996V1.064ZM10.1014 1.064H14.2134V0.344H10.1014V1.064ZM20.2108 1.064H24.3228V0.344H20.2108V1.064ZM30.3201 1.064H34.4321V0.344H30.3201V1.064ZM40.4295 1.064H44.5415V0.344H40.4295V1.064ZM50.5389 1.064H54.6509V0.344H50.5389V1.064ZM60.6483 1.064H64.7603V0.344H60.6483V1.064ZM70.7576 1.064H74.8696V0.344H70.7576V1.064ZM80.867 1.064H84.979V0.344H80.867V1.064ZM90.9764 1.064H95.0884V0.344H90.9764V1.064ZM101.086 1.064H105.198V0.344H101.086V1.064ZM111.195 1.064H115.307V0.344H111.195V1.064ZM121.305 1.064H125.417V0.344H121.305V1.064ZM131.414 1.064H135.526V0.344H131.414V1.064Z" fill="white" fill-opacity="0.25"/>
</svg>
